<svg width="50" height="50" viewBox="0 0 50 50" fill="none" xmlns="http://www.w3.org/2000/svg">
<path d="M30.3041 25.0008L46.3296 8.97528L49.6344 5.67049C50.1219 5.18297 50.1219 4.39076 49.6344 3.90325L46.0983 0.367199C45.6108 -0.120316 44.8186 -0.120316 44.3311 0.367199L25.0008 19.6975L5.67049 0.365636C5.18297 -0.121879 4.39076 -0.121879 3.90325 0.365636L0.365636 3.90169C-0.121879 4.3892 -0.121879 5.18141 0.365636 5.66893L19.6975 25.0008L0.365636 44.3311C-0.121879 44.8186 -0.121879 45.6108 0.365636 46.0983L3.90168 49.6344C4.3892 50.1219 5.18141 50.1219 5.66893 49.6344L25.0008 30.3041L41.0263 46.3296L44.3311 49.6344C44.8186 50.1219 45.6108 50.1219 46.0983 49.6344L49.6344 46.0983C50.1219 45.6108 50.1219 44.8186 49.6344 44.3311L30.3041 25.0008Z" fill="white"/>
</svg>
