<svg width="20" height="20" viewBox="0 0 20 20" fill="none" xmlns="http://www.w3.org/2000/svg">
<path d="M10 19.7624C15.3917 19.7624 19.7626 15.3915 19.7626 9.99984C19.7626 4.60814 15.3917 0.237305 10 0.237305C4.60832 0.237305 0.237488 4.60814 0.237488 9.99984C0.237488 15.3915 4.60832 19.7624 10 19.7624Z" fill="#FF1A1A"/>
<path d="M10 17.4772C15.3917 17.4772 19.7626 14.1295 19.7626 9.99984C19.7626 5.87023 15.3917 2.52252 10 2.52252C4.60832 2.52252 0.237488 5.87023 0.237488 9.99984C0.237488 14.1295 4.60832 17.4772 10 17.4772Z" fill="#D60909"/>
<path d="M0.237488 9.99982C0.237488 15.392 4.60828 19.7625 10 19.7625C15.3918 19.7625 19.7626 15.392 19.7626 9.99982H0.237488V9.99982Z" fill="white"/>
<path d="M10 17.4771C15.3918 17.4771 19.7626 14.1292 19.7626 9.99982H0.237488C0.237488 14.1292 4.60828 17.4771 10 17.4771Z" fill="#D8E5EA"/>
<path d="M10 0C4.48589 0 0 4.48589 0 9.99984C0 15.514 4.48589 20 10 20C15.5141 20 20 15.514 20 9.99984C20 4.48589 15.5141 0 10 0ZM10 0.474932C15.1725 0.474932 19.3922 4.61998 19.5191 9.76238H0.480947C0.607754 4.61998 4.82752 0.474932 10 0.474932ZM10 19.5251C4.82752 19.5251 0.607754 15.3799 0.480947 10.2373H19.5191C19.3922 15.3799 15.1725 19.5251 10 19.5251Z" fill="#33363A"/>
<path d="M9.99999 13.5564C11.4657 13.5564 12.6539 12.3682 12.6539 10.9025C12.6539 9.43679 11.4657 8.2486 9.99999 8.2486C8.53427 8.2486 7.34607 9.43679 7.34607 10.9025C7.34607 12.3682 8.53427 13.5564 9.99999 13.5564Z" fill="#A7BBC1"/>
<path d="M9.99999 12.6539C11.4657 12.6539 12.6539 11.4657 12.6539 9.99999C12.6539 8.53427 11.4657 7.34607 9.99999 7.34607C8.53427 7.34607 7.34607 8.53427 7.34607 9.99999C7.34607 11.4657 8.53427 12.6539 9.99999 12.6539Z" fill="white"/>
<path d="M8.12342 11.8766C7.08696 10.8402 7.08711 9.16001 8.12342 8.12323C9.15987 7.08693 10.8402 7.08693 11.8765 8.12323" fill="#D8E5EA"/>
<path d="M10 12.8915C9.22777 12.8915 8.5016 12.5908 7.95542 12.0446C6.82825 10.9174 6.82825 9.08307 7.95542 7.95542C9.08291 6.82825 10.9171 6.82825 12.0444 7.95542C12.5906 8.50175 12.8915 9.22792 12.8915 10.0002C12.8915 10.7724 12.5908 11.4986 12.0444 12.0447C11.4984 12.5908 10.7724 12.8915 10 12.8915ZM10 7.58466C9.38117 7.58466 8.76249 7.82007 8.29136 8.2912C7.34941 9.23362 7.34941 10.7667 8.29136 11.7088C8.74777 12.1652 9.35457 12.4166 10 12.4166C10.6454 12.4166 11.2522 12.1652 11.7085 11.7088C12.1649 11.2524 12.4165 10.6456 12.4165 10.0002C12.4165 9.35473 12.1651 8.74793 11.7085 8.29136C11.2377 7.82023 10.6188 7.58466 10 7.58466Z" fill="#33363A"/>
<path d="M10.903 10.9029C10.4045 11.4009 9.59585 11.4009 9.09765 10.9029C8.59913 10.4042 8.59928 9.59601 9.09765 9.09764C9.59601 8.59897 10.4045 8.59928 10.9029 9.09764C11.4014 9.59601 11.4014 10.4042 10.903 10.9029Z" fill="white"/>
<path d="M9.09766 9.09764C9.59602 8.59897 10.4045 8.59928 10.9029 9.09764C11.4012 9.59601 11.4012 10.4042 10.903 10.9029" fill="#D8E5EA"/>
<path d="M10.0002 11.5131C9.61233 11.5131 9.22478 11.3658 8.92969 11.0708C8.33935 10.4803 8.33935 9.51985 8.92969 8.92967C9.21544 8.6436 9.59571 8.48608 10 8.48608C10.4045 8.48608 10.7848 8.64376 11.0707 8.92967C11.6609 9.51969 11.6609 10.4802 11.0708 11.0707C11.0708 11.0707 11.0708 11.0708 11.0707 11.0708C10.7756 11.3658 10.3879 11.5131 10.0002 11.5131ZM10 8.96102C9.72251 8.96102 9.46162 9.06914 9.26547 9.26545C8.86035 9.67056 8.86035 10.3298 9.26547 10.7349C9.67043 11.1397 10.3298 11.1397 10.7351 10.7349C11.14 10.3296 11.1399 9.67041 10.7349 9.26545C10.5388 9.0693 10.2777 8.96117 10 8.96102Z" fill="#33363A"/>
</svg>
