<svg width="363" height="51" viewBox="0 0 363 51" fill="none" xmlns="http://www.w3.org/2000/svg">
<g clip-path="url(#clip0)">
<path d="M30.0399 16.9007L22.1169 22.0825C21.5863 20.7619 19.8119 20.1017 16.7936 20.1017C16.1097 20.1017 15.4082 20.591 14.689 21.5696C13.9698 22.5482 13.6102 23.6505 13.6102 24.8767C13.6692 25.8082 13.9462 26.7042 14.4414 27.5649C14.9366 28.4138 15.815 28.8677 17.0765 28.9267C18.0198 28.9267 19.0101 28.6732 20.0477 28.1662C21.0852 27.6592 21.9813 26.6453 22.7358 25.1243C22.783 25.2186 23.2723 25.6608 24.2037 26.4507C25.1351 27.2407 26.0843 28.0306 27.0511 28.8206C28.0296 29.6105 28.7488 30.1941 29.2087 30.5714C28.3126 32.7172 27.1277 34.3973 25.6539 35.6117C24.1801 36.8261 22.6356 37.6573 21.0204 38.1053C19.4051 38.5534 17.8016 38.7774 16.21 38.7774C13.9816 38.7774 12.0185 38.3588 10.3208 37.5217C8.63475 36.6728 7.2494 35.2285 6.1647 33.1888C5.08001 31.1373 4.41975 28.3666 4.18395 24.8767C4.16037 24.5348 4.14858 24.016 4.14858 23.3204C4.14858 21.5755 4.35491 19.9013 4.76757 18.2978C5.16843 16.6943 5.82868 15.25 6.74832 13.9649C7.67975 12.668 8.95898 11.6127 10.586 10.7992C12.2131 9.9857 14.182 9.56125 16.4929 9.52588C18.0257 9.52588 19.5348 9.70863 21.0204 10.0741C22.5059 10.4278 23.8677 10.9289 25.1057 11.5774C26.3436 12.214 27.4048 12.9981 28.289 13.9295C29.1851 14.8492 29.7687 15.8395 30.0399 16.9007ZM36.6542 36.9027L55.2061 37.7693L55.0646 45.4447L29.2617 44.1537L27.8292 17.4843L25.3533 17.9264L25.7954 9.52588L47.23 6.32484L47.6721 14.018L35.5046 16.0341L35.7876 21.5519L47.8136 19.5181L48.2557 25.8848L36.0882 28.2016L36.6542 36.9027ZM54.8347 5.90039L59.4682 17.6258L58.4602 6.90846L69.4604 7.35059L69.7611 47.0364L63.2352 47.4786L56.5678 28.6437L56.7093 44.1537L48.3088 44.2952L47.3007 10.3925L44.2589 9.66736L44.1174 5.1753L54.8347 5.90039ZM83.591 15.8926L84.599 39.6616H83.5202C82.8128 39.6616 81.9168 39.6381 80.8321 39.5909C79.7474 39.5555 78.7629 39.4789 77.8786 39.361C76.9944 39.2549 76.34 39.1134 75.9156 38.9365L74.7483 16.1756L63.7304 16.3347L63.8895 9.36671L92.133 7.49207L92.5751 15.1675L83.591 15.8926ZM95.9707 15.4681L96.9788 20.6676C97.7569 20.5026 98.6235 19.8305 99.5785 18.6515C100.545 17.4725 101.029 16.5293 101.029 15.8219C101.029 15.4564 100.887 15.2382 100.604 15.1675C99.4016 14.8609 98.594 14.7077 98.1814 14.7077C97.415 14.7077 96.6781 14.9612 95.9707 15.4681ZM100.233 23.5326C99.8084 23.9571 99.3486 24.3992 98.8534 24.859C98.3582 25.3071 98.0222 25.6018 97.8453 25.7433L100.162 38.6359L94.0784 40.2276L90.4529 17.2013C90.3821 17.2013 90.2466 17.3074 90.0461 17.5196C89.8575 17.7319 89.5981 18.0325 89.268 18.4216C88.9496 18.8107 88.7669 19.0288 88.7197 19.0759C88.6843 19.0759 88.5664 18.8225 88.366 18.3155C88.1774 17.8085 87.918 17.107 87.5879 16.2109C87.2695 15.3031 86.9099 14.3009 86.5091 13.2044C86.0964 12.0961 85.8193 11.4005 85.6778 11.1176C87.1045 10.646 88.4427 10.2097 89.6924 9.80885C90.954 9.40798 92.2804 9.03069 93.6716 8.67699C95.0629 8.31149 96.3892 8.02263 97.6508 7.81041C98.9241 7.59818 100.174 7.49207 101.4 7.49207C102.355 7.49207 103.233 7.56871 104.035 7.72198C104.837 7.86346 105.592 8.10516 106.299 8.44708C107.018 8.78899 107.655 9.24881 108.209 9.82653C108.775 10.3925 109.235 11.0645 109.588 11.8427C109.706 12.0785 109.765 12.3791 109.765 12.7446C109.765 13.3223 109.588 13.959 109.235 14.6546C108.893 15.3385 108.433 16.0694 107.855 16.8476C107.289 17.614 106.659 18.4098 105.963 19.2351C106.611 19.3059 107.23 19.7775 107.82 20.6499C108.421 21.5106 108.863 22.5305 109.146 23.7095L112.188 39.361L106.829 40.5282L102.921 26.1854C102.85 25.985 102.715 25.6844 102.514 25.2835C102.314 24.8708 102.043 24.4641 101.701 24.0632C101.359 23.6623 100.993 23.4619 100.604 23.4619C100.522 23.4619 100.398 23.4855 100.233 23.5326ZM120.182 6.62549L137.567 48.4866L130.174 49.2117L121.915 29.9524L117.281 29.2273L110.048 44.5782L100.905 45.0203L120.182 6.62549ZM117.582 25.0182L121.774 25.6018L120.04 18.793L117.582 25.0182ZM138.062 36.9027L156.614 37.7693L156.472 45.4447L130.669 44.1537L129.078 13.4343L126.478 14.018L127.344 9.66736L136.329 5.90039L138.062 36.9027Z" fill="white"/>
<path d="M231.868 8.28258L241.451 4.26448L242.847 26.0528L250.732 21.7328L258.919 22.959L248.242 31.1461L258.297 38.7296L258.749 46.2942L243.922 35.6359L244.394 44.8982L235.414 45.068L233.716 12.3007L230.943 12.9232L231.868 8.28258ZM272.049 29.3729L276.595 34.8624C276.23 35.9188 275.363 36.8872 273.992 37.7675C272.634 38.6479 271.011 39.3396 269.125 39.8426C267.251 40.3582 265.377 40.616 263.503 40.616C261.843 40.616 260.359 40.396 259.051 39.9558C257.756 39.5156 256.756 38.8491 256.052 37.9562C254.832 36.4219 254.222 34.46 254.222 32.0705C254.222 30.1841 254.562 28.3291 255.241 26.5055C255.932 24.6694 256.662 23.3866 257.429 22.6572C258.347 21.7894 259.341 21.0663 260.409 20.4878C261.491 19.9093 262.61 19.4754 263.767 19.1862C264.924 18.8969 266.113 18.7523 267.333 18.7523C268.93 18.7523 270.445 19.0101 271.879 19.5257C273.325 20.0288 274.589 20.7645 275.671 21.7328L265.314 34.089C266.232 34.089 267.1 33.9003 267.917 33.523C268.748 33.1332 269.508 32.5861 270.2 31.8819C270.892 31.165 271.508 30.3287 272.049 29.3729ZM266.823 24.9775C266.207 24.6631 265.578 24.5059 264.937 24.5059C264.258 24.5059 263.598 24.6442 262.956 24.9209C262.327 25.1976 261.881 25.5246 261.617 25.9019C260.837 26.908 260.447 28.0147 260.447 29.222C260.447 29.6622 260.491 30.0835 260.579 30.4859C260.667 30.8883 260.818 31.4417 261.032 32.146L266.823 24.9775ZM257.127 11.3763L267.182 5.81135L271.502 12.4516L259.296 14.7719L257.127 11.3763ZM291.045 18.1675C294.302 17.1362 296.723 16.6206 298.308 16.6206C299.566 16.6206 300.647 16.8784 301.553 17.394C302.672 18.0354 303.879 19.1296 305.175 20.6764C306.47 22.2233 307.275 23.657 307.589 24.9775C308.256 27.6562 308.589 29.9954 308.589 31.995C308.589 33.0514 308.52 34.1644 308.381 35.334C308.243 36.491 308.029 37.9813 307.74 39.8049L299.855 40.2765C299.88 39.6477 299.893 38.7422 299.893 37.56C299.893 32.6301 299.213 28.436 297.855 24.9775C297.604 24.3613 297.308 23.8771 296.969 23.525C296.629 23.1728 296.327 22.9968 296.063 22.9968C295.786 22.9968 295.648 23.1917 295.648 23.5815C295.648 23.8079 295.673 24.0029 295.724 24.1663C295.812 24.3676 295.9 24.638 295.988 24.9775C296.667 27.7065 297.006 30.0457 297.006 31.995C297.006 32.9508 296.943 33.9569 296.818 35.0133C296.692 36.0572 296.472 37.6543 296.157 39.8049L288.272 40.2765C288.297 39.6477 288.31 38.7422 288.31 37.56C288.31 32.6176 287.624 28.4234 286.254 24.9775C286.09 24.5751 285.964 24.1538 285.876 23.7136C285.788 23.2609 285.725 23.0345 285.688 23.0345C285.637 23.0345 285.493 23.33 285.254 23.9211C285.015 24.5122 284.757 25.1221 284.48 25.7509C284.292 26.1911 284.135 26.6942 284.009 27.2601C283.896 27.826 283.808 28.4611 283.745 29.1654C283.694 29.8697 283.669 30.6997 283.669 31.6555C283.669 33.5922 283.782 36.0509 284.009 39.0314L274.746 40.1067C274.595 39 274.457 37.8996 274.331 36.8054C274.206 35.7113 274.105 34.6989 274.03 33.7683C273.967 32.8251 273.935 31.8127 273.935 30.7311C273.935 30.2658 273.96 29.593 274.011 28.7126L273.671 17.7147L281.085 16.7715L282.16 18.0166C284.147 17.3752 285.769 17.0545 287.027 17.0545C288.423 17.0545 289.762 17.4255 291.045 18.1675ZM323.945 19.3748C324.837 19.8527 325.561 20.5004 326.114 21.3178C326.68 22.1227 327.089 23.0345 327.34 24.0532C327.604 25.0593 327.736 26.1094 327.736 27.2035C327.736 28.109 327.661 28.983 327.51 29.8256C327.372 30.6682 327.177 31.4417 326.925 32.146C326.674 32.8502 326.378 33.4476 326.038 33.9381C325.246 35.1202 324.397 36.1389 323.492 36.9941C322.586 37.8493 321.662 38.541 320.719 39.0692C319.776 39.5848 318.839 39.9621 317.908 40.201C316.99 40.4525 316.078 40.5783 315.173 40.5783C314.104 40.5783 313.085 40.4085 312.117 40.069C311.161 39.742 310.343 39.3081 309.664 38.7673C308.545 37.8367 307.671 36.5854 307.042 35.0133C306.413 33.4287 306.099 31.7561 306.099 29.9954C306.099 26.9646 306.973 24.5185 308.721 22.6572C310.218 21.06 311.764 19.859 313.362 19.0541C314.959 18.2367 316.594 17.8279 318.266 17.8279C319.247 17.8279 320.191 17.9537 321.096 18.2052C322.002 18.4442 322.951 18.834 323.945 19.3748ZM322.832 22.544C322.618 23.4998 322.152 24.3424 321.436 25.0718C320.731 25.8013 320.04 26.166 319.361 26.166C319.021 26.166 318.719 26.0779 318.455 25.9019C318.078 25.6 317.889 25.0718 317.889 24.3173C317.889 23.7388 318.078 23.1665 318.455 22.6006C318.845 22.0347 319.455 21.5882 320.285 21.2612C319.455 21.2612 318.65 21.4184 317.87 21.7328C317.103 22.0472 316.443 22.456 315.889 22.959C315.336 23.4495 314.89 24.0091 314.55 24.638C314.223 25.2542 314.06 25.8767 314.06 26.5055C314.06 27.6751 314.6 28.6057 315.682 29.2974C316.688 29.9388 317.644 30.2595 318.549 30.2595C319.442 30.2595 320.235 29.964 320.926 29.3729C321.618 28.7692 322.146 28.0021 322.511 27.0714C322.876 26.1282 323.058 25.1976 323.058 24.2795C323.058 23.6507 322.982 23.0722 322.832 22.544ZM334.339 18.0166C335.735 17.5513 336.936 17.1991 337.942 16.9602C338.948 16.7086 339.91 16.5829 340.828 16.5829C342.061 16.5829 343.142 16.8533 344.073 17.394C345.192 18.0354 346.399 19.1296 347.695 20.6764C348.99 22.2233 349.795 23.657 350.109 24.9775C350.776 27.6562 351.109 29.9954 351.109 31.995C351.109 33.0514 351.04 34.1644 350.902 35.334C350.763 36.491 350.55 37.9813 350.26 39.8049L342.375 40.2765C342.4 39.6477 342.413 38.7422 342.413 37.56C342.413 32.6301 341.734 28.436 340.375 24.9775C339.847 23.6822 339.332 23.0345 338.828 23.0345C338.175 23.0345 337.451 23.94 336.659 25.7509C336.47 26.1911 336.313 26.6942 336.187 27.2601C336.074 27.826 335.986 28.4611 335.923 29.1654C335.873 29.8697 335.848 30.6997 335.848 31.6555C335.848 33.5922 335.961 36.0509 336.187 39.0314L326.925 40.1067C326.774 39 326.636 37.8996 326.51 36.8054C326.384 35.7113 326.284 34.6989 326.208 33.7683C326.145 32.8251 326.114 31.8127 326.114 30.7311C326.114 30.2658 326.139 29.593 326.189 28.7126L325.85 17.7147L333.264 16.7715L334.339 18.0166Z" fill="white"/>
<path d="M173.112 15.4636C174.633 14.9606 176.061 14.4952 177.394 14.0676C178.74 13.6401 180.154 13.2376 181.638 12.8603C183.122 12.4705 184.543 12.1624 185.902 11.936C186.946 11.7599 188.014 11.6719 189.109 11.6719C190.932 11.6719 192.127 11.7222 192.693 11.8228C193.548 11.9863 194.353 12.2504 195.107 12.6151C195.875 12.9798 196.554 13.4703 197.145 14.0865C197.748 14.6902 198.239 15.407 198.616 16.237C198.767 16.5766 198.843 16.935 198.843 17.3123C198.843 18.7208 198.069 20.4564 196.522 22.5189C194.988 24.5814 193.441 26.3798 191.882 27.9141C190.335 29.4484 189.178 30.5488 188.411 31.2153L191.806 43.1187L186.864 46.6841L178.205 21.9529C178.18 21.9529 178.06 22.0724 177.847 22.3114C177.633 22.5503 177.35 22.8647 176.998 23.2546C176.658 23.6319 176.444 23.8645 176.356 23.9526C176.319 23.9526 176.193 23.6822 175.979 23.1414C175.778 22.6006 175.501 21.8523 175.149 20.8965C174.809 19.9282 174.426 18.8592 173.998 17.6896C173.558 16.5074 173.263 15.7654 173.112 15.4636ZM185.317 20.7079L186.864 26.2729C187.643 25.4806 188.612 24.399 189.769 23.0282C190.926 21.6574 191.504 20.6639 191.504 20.0476C191.504 19.8087 191.404 19.6704 191.203 19.6326C190.637 19.5069 190.077 19.444 189.524 19.444C187.864 19.444 186.461 19.8653 185.317 20.7079Z" fill="white"/>
<g clip-path="url(#clip1)">
<path d="M216.11 44.7385C223.704 44.7385 229.861 38.582 229.861 30.9876C229.861 23.3932 223.704 17.2367 216.11 17.2367C208.515 17.2367 202.359 23.3932 202.359 30.9876C202.359 38.582 208.515 44.7385 216.11 44.7385Z" fill="#FF1A1A"/>
<path d="M216.11 41.5196C223.704 41.5196 229.861 36.8043 229.861 30.9876C229.861 25.1708 223.704 20.4555 216.11 20.4555C208.515 20.4555 202.359 25.1708 202.359 30.9876C202.359 36.8043 208.515 41.5196 216.11 41.5196Z" fill="#D60909"/>
<path d="M202.359 30.9876C202.359 38.5827 208.515 44.7387 216.11 44.7387C223.704 44.7387 229.861 38.5827 229.861 30.9876H202.359Z" fill="white"/>
<path d="M216.11 41.5197C223.704 41.5197 229.861 36.8039 229.861 30.9876H202.359C202.359 36.8039 208.515 41.5197 216.11 41.5197Z" fill="#D8E5EA"/>
<path d="M216.11 16.9024C208.343 16.9024 202.024 23.221 202.024 30.9876C202.024 38.7544 208.343 45.0732 216.11 45.0732C223.877 45.0732 230.195 38.7544 230.195 30.9876C230.195 23.221 223.877 16.9024 216.11 16.9024ZM216.11 17.5714C223.395 17.5714 229.339 23.4098 229.518 30.6531H202.702C202.88 23.4098 208.824 17.5714 216.11 17.5714ZM216.11 44.4042C208.824 44.4042 202.88 38.5655 202.702 31.3221H229.518C229.339 38.5655 223.395 44.4042 216.11 44.4042Z" fill="#33363A"/>
<path d="M216.11 35.9972C218.174 35.9972 219.848 34.3236 219.848 32.259C219.848 30.1945 218.174 28.5209 216.11 28.5209C214.045 28.5209 212.372 30.1945 212.372 32.259C212.372 34.3236 214.045 35.9972 216.11 35.9972Z" fill="#A7BBC1"/>
<path d="M216.11 34.7259C218.174 34.7259 219.848 33.0523 219.848 30.9878C219.848 28.9233 218.174 27.2497 216.11 27.2497C214.045 27.2497 212.372 28.9233 212.372 30.9878C212.372 33.0523 214.045 34.7259 216.11 34.7259Z" fill="white"/>
<path d="M213.466 33.6311C212.007 32.1712 212.007 29.8046 213.466 28.3443C214.926 26.8846 217.293 26.8846 218.753 28.3443" fill="#D8E5EA"/>
<path d="M216.11 35.0607C215.022 35.0607 213.999 34.637 213.23 33.8677C211.642 32.28 211.642 29.6963 213.23 28.108C214.818 26.5203 217.401 26.5203 218.989 28.108C219.759 28.8775 220.183 29.9003 220.183 30.988C220.183 32.0758 219.759 33.0986 218.989 33.8679C218.22 34.637 217.198 35.0607 216.11 35.0607ZM216.11 27.5857C215.238 27.5857 214.367 27.9173 213.703 28.5809C212.376 29.9083 212.376 32.0677 213.703 33.3947C214.346 34.0376 215.201 34.3917 216.11 34.3917C217.019 34.3917 217.874 34.0376 218.516 33.3947C219.159 32.7519 219.513 31.8972 219.513 30.988C219.513 30.0789 219.159 29.2242 218.516 28.5811C217.853 27.9175 216.981 27.5857 216.11 27.5857Z" fill="#33363A"/>
<path d="M217.382 32.2595C216.679 32.961 215.54 32.961 214.839 32.2595C214.137 31.5571 214.137 30.4188 214.839 29.7168C215.541 29.0144 216.679 29.0148 217.381 29.7168C218.084 30.4188 218.084 31.5571 217.382 32.2595Z" fill="white"/>
<path d="M214.839 29.7168C215.541 29.0144 216.679 29.0148 217.381 29.7168C218.083 30.4188 218.083 31.5571 217.382 32.2595" fill="#D8E5EA"/>
<path d="M216.11 33.1191C215.564 33.1191 215.018 32.9115 214.602 32.4961C213.771 31.6643 213.771 30.3115 214.602 29.4802C215.005 29.0772 215.54 28.8554 216.11 28.8554C216.679 28.8554 217.215 29.0775 217.618 29.4802C218.449 30.3113 218.449 31.6641 217.618 32.4959C217.618 32.4959 217.618 32.4961 217.618 32.4961C217.202 32.9115 216.656 33.1191 216.11 33.1191ZM216.11 29.5243C215.719 29.5243 215.351 29.6766 215.075 29.9531C214.504 30.5238 214.504 31.4523 215.075 32.0229C215.645 32.5931 216.574 32.5931 217.145 32.0229C217.715 31.4521 217.715 30.5235 217.145 29.9531C216.869 29.6769 216.501 29.5246 216.11 29.5243Z" fill="#33363A"/>
</g>
</g>
<defs>
<clipPath id="clip0">
<rect width="363" height="50.7073" fill="white"/>
</clipPath>
<clipPath id="clip1">
<rect width="28.1707" height="28.1707" fill="white" transform="translate(202.024 16.9024)"/>
</clipPath>
</defs>
</svg>
