<svg width="36" height="35" viewBox="0 0 36 35" fill="none" xmlns="http://www.w3.org/2000/svg">
<g clip-path="url(#clip0)">
<path d="M14.0854 27.836C21.6798 27.836 27.8362 21.6795 27.8362 14.0851C27.8362 6.49071 21.6798 0.334229 14.0854 0.334229C6.49095 0.334229 0.334473 6.49071 0.334473 14.0851C0.334473 21.6795 6.49095 27.836 14.0854 27.836Z" fill="white"/>
<path d="M14.0854 24.6172C21.6798 24.6172 27.8362 19.9018 27.8362 14.0851C27.8362 8.26841 21.6798 3.55304 14.0854 3.55304C6.49095 3.55304 0.334473 8.26841 0.334473 14.0851C0.334473 19.9018 6.49095 24.6172 14.0854 24.6172Z" fill="#777777"/>
<path d="M0.334473 14.0851C0.334473 21.6803 6.4909 27.8363 14.0854 27.8363C21.6798 27.8363 27.8362 21.6803 27.8362 14.0851H0.334473V14.0851Z" fill="white"/>
<path d="M14.0854 24.6172C21.6798 24.6172 27.8362 19.9015 27.8362 14.0851H0.334473C0.334473 19.9015 6.4909 24.6172 14.0854 24.6172Z" fill="#CEDADE"/>
<path d="M14.0854 0C6.31853 0 0 6.31853 0 14.0851C0 21.852 6.31853 28.1707 14.0854 28.1707C21.8522 28.1707 28.1707 21.852 28.1707 14.0851C28.1707 6.31853 21.8522 0 14.0854 0ZM14.0854 0.668958C21.371 0.668958 27.3147 6.5074 27.4933 13.7507H0.677432C0.856044 6.5074 6.79974 0.668958 14.0854 0.668958ZM14.0854 27.5018C6.79974 27.5018 0.856044 21.6631 0.677432 14.4196H27.4933C27.3147 21.6631 21.371 27.5018 14.0854 27.5018Z" fill="#777777"/>
<path d="M14.0854 19.0947C16.1499 19.0947 17.8235 17.4211 17.8235 15.3566C17.8235 13.2921 16.1499 11.6185 14.0854 11.6185C12.0209 11.6185 10.3472 13.2921 10.3472 15.3566C10.3472 17.4211 12.0209 19.0947 14.0854 19.0947Z" fill="#A7BBC1"/>
<path d="M14.0854 17.8235C16.1499 17.8235 17.8235 16.1499 17.8235 14.0854C17.8235 12.0209 16.1499 10.3472 14.0854 10.3472C12.0209 10.3472 10.3472 12.0209 10.3472 14.0854C10.3472 16.1499 12.0209 17.8235 14.0854 17.8235Z" fill="white"/>
<path d="M11.4421 16.7286C9.98223 15.2687 9.98246 12.9022 11.4421 11.4419C12.902 9.98219 15.2688 9.98219 16.7285 11.4419" fill="#D8E5EA"/>
<path d="M14.0854 18.1582C12.9977 18.1582 11.9748 17.7346 11.2055 16.9653C9.61786 15.3776 9.61786 12.7938 11.2055 11.2055C12.7936 9.61786 15.3771 9.61786 16.965 11.2055C17.7343 11.975 18.1582 12.9979 18.1582 14.0856C18.1582 15.1733 17.7346 16.1962 16.965 16.9655C16.1959 17.7346 15.1733 18.1582 14.0854 18.1582ZM14.0854 10.6833C13.2137 10.6833 12.3423 11.0149 11.6787 11.6785C10.3519 13.0059 10.3519 15.1653 11.6787 16.4923C12.3216 17.1352 13.1763 17.4893 14.0854 17.4893C14.9945 17.4893 15.8492 17.1352 16.4918 16.4923C17.1347 15.8494 17.489 14.9947 17.489 14.0856C17.489 13.1765 17.1349 12.3218 16.4918 11.6787C15.8287 11.0151 14.957 10.6833 14.0854 10.6833Z" fill="#777777"/>
<path d="M15.3573 15.3571C14.6551 16.0586 13.5161 16.0586 12.8144 15.3571C12.1122 14.6547 12.1124 13.5163 12.8144 12.8144C13.5164 12.112 14.6551 12.1124 15.3571 12.8144C16.0593 13.5163 16.0593 14.6547 15.3573 15.3571Z" fill="white"/>
<path d="M12.8143 12.8144C13.5163 12.112 14.6551 12.1124 15.357 12.8144C16.059 13.5163 16.059 14.6547 15.3573 15.3571" fill="#D8E5EA"/>
<path d="M14.0856 16.2167C13.5393 16.2167 12.9934 16.0091 12.5777 15.5936C11.7462 14.7619 11.7462 13.409 12.5777 12.5777C12.9802 12.1748 13.5158 11.9529 14.0853 11.9529C14.6551 11.9529 15.1907 12.175 15.5934 12.5777C16.4247 13.4088 16.4247 14.7617 15.5936 15.5934C15.5936 15.5934 15.5936 15.5936 15.5934 15.5936C15.1778 16.0091 14.6317 16.2167 14.0856 16.2167ZM14.0853 12.6219C13.6945 12.6219 13.327 12.7742 13.0507 13.0507C12.4801 13.6213 12.4801 14.5498 13.0507 15.1205C13.6211 15.6906 14.5498 15.6906 15.1207 15.1205C15.6911 14.5496 15.6908 13.6211 15.1204 13.0507C14.8442 12.7744 14.4765 12.6221 14.0853 12.6219Z" fill="#777777"/>
</g>
<path d="M24.0997 26.2195C23.4923 25.6561 23.4567 24.707 24.0202 24.0997V24.0997C24.5836 23.4923 25.5327 23.4567 26.14 24.0202L34.2975 31.5879C34.7024 31.9635 34.7261 32.5962 34.3505 33.0011L33.6704 33.7342C33.2948 34.1391 32.6621 34.1628 32.2572 33.7872L24.0997 26.2195Z" fill="#777777"/>
<defs>
<clipPath id="clip0">
<rect width="28.1707" height="28.1707" fill="white"/>
</clipPath>
</defs>
</svg>
